# xmcd
#
# Track frame offsets:
#	150
#	15956
#	43458
#	66558
#	84768
#	109743
#	128954
#	164320
#	186520
#	207609
#
# Disc length: 2979 seconds
#
# Revision: 1
# Processed by: cddbd v1.5.2PL0 Copyright (c) Steve Scherf et al.
# Submitted via: audiograbber 1.83.01
#
DISCID=8f0ba10a
DTITLE=Dr Bekken - Flood Street
DYEAR=2006
DGENRE=Piano Blues
TTITLE0=The Wake
TTITLE1=When I Hear You Whisper
TTITLE2=Backwater Blues
TTITLE3=The Smile In Your Eyes
TTITLE4=Saturday Night Function
TTITLE5=Sometimes I Feel Like A Motherless Child
TTITLE6=Still Water/El Choclo
TTITLE7=Flood Street
TTITLE8=Mr. Eddie
TTITLE9=Louisiana 1927
EXTD=
EXTT0=
EXTT1=
EXTT2=
EXTT3=
EXTT4=
EXTT5=
EXTT6=
EXTT7=
EXTT8=
EXTT9=
PLAYORDER=
